<svg version="1.2" xmlns="http://www.w3.org/2000/svg" viewBox="0 0 24 24" width="24" height="24">
	<title>calendar-minimalistic-svgrepo-com-svg</title>
	<style>
		.s0 { fill: none;stroke: #9d9d9d;stroke-linecap: round;stroke-linejoin: round } 
	</style>
	<path id="Layer" fill-rule="evenodd" class="s0" d="m11.3 22h-6.1c-0.7 0-1.2-0.5-1.2-1.2v-17c0-0.7 0.5-1.2 1.2-1.2h12.2c0.6 0 1.2 0.5 1.2 1.2v6.1m-3.4 10.2c-2.2 0-3.9-1.8-3.9-3.9 0-2.2 1.7-3.9 3.9-3.9 2.1 0 3.9 1.7 3.9 3.9 0 1-0.5 2-1.2 2.7-0.7 0.7-1.6 1.2-2.7 1.2zm2.7-1.2l3.1 3.1"/>
</svg>