<svg version="1.2" xmlns="http://www.w3.org/2000/svg" viewBox="0 0 24 23" width="24" height="23">
	<title>Proyecto nuevo</title>
	<style>
		.s0 { fill: none;stroke: #7e7e7e;stroke-linejoin: round;stroke-width: 1.3 } 
	</style>
	<path id="Layer" fill-rule="evenodd" class="s0" d="m12.2 22.6c0 0-8.3-4.1-8.3-12.5 0-2.2 0.9-4.4 2.4-5.9 1.6-1.6 3.7-2.5 5.9-2.5 2.3 0 4.4 0.9 6 2.5 1.5 1.5 2.4 3.7 2.4 5.9 0 8.4-8.4 12.5-8.4 12.5zm3.2-12.5c0-1.8-1.4-3.1-3.2-3.1-1.7 0-3.1 1.3-3.1 3.1 0 1.7 1.4 3.1 3.1 3.1 1.8 0 3.2-1.4 3.2-3.1z"/>
</svg>